<?xml version="1.0" standalone="no"?>
<!DOCTYPE svg PUBLIC "-//W3C//DTD SVG 20010904//EN"
 "http://www.w3.org/TR/2001/REC-SVG-20010904/DTD/svg10.dtd">
<svg version="1.0" xmlns="http://www.w3.org/2000/svg"
 width="2000.000000pt" height="1000.000000pt" viewBox="0 0 2000.000000 1000.000000"
 preserveAspectRatio="xMidYMid meet">

<g transform="translate(0.000000,1000.000000) scale(0.100000,-0.100000)"
fill="#000000" stroke="none">
<path d="M19995 5000 c0 -2753 1 -3879 2 -2503 2 1377 2 3629 0 5005 -1 1377
-2 251 -2 -2502z"/>
<path d="M17199 9727 c-33 -15 -107 -100 -115 -132 -8 -32 12 -89 40 -116 12
-12 48 -31 78 -43 30 -12 97 -43 148 -71 72 -38 104 -62 141 -107 26 -31 56
-67 67 -79 40 -42 46 -73 33 -175 -6 -52 -17 -111 -24 -132 -18 -50 -113 -164
-289 -345 -82 -83 -148 -157 -148 -164 0 -7 -3 -13 -7 -13 -5 0 -21 -21 -38
-48 -16 -26 -69 -92 -118 -147 -48 -55 -100 -115 -115 -134 -23 -29 -84 -90
-192 -193 -14 -13 -41 -44 -60 -69 -19 -24 -51 -62 -71 -84 -21 -22 -48 -60
-61 -85 -13 -25 -49 -87 -79 -138 -30 -51 -61 -105 -69 -121 -8 -15 -31 -50
-51 -77 -20 -27 -62 -101 -93 -164 -32 -63 -62 -124 -68 -135 -6 -11 -23 -42
-36 -68 -36 -68 -83 -102 -178 -125 -43 -11 -101 -23 -127 -26 -27 -3 -63 -12
-80 -20 -18 -8 -57 -20 -87 -26 -30 -7 -84 -25 -119 -41 -84 -39 -126 -48
-256 -55 -60 -3 -131 -12 -157 -21 -26 -8 -80 -22 -120 -33 -40 -10 -111 -30
-158 -44 -47 -15 -96 -25 -109 -24 -24 3 -24 4 17 51 65 74 72 95 72 197 0 49
-4 98 -9 108 -6 9 -17 38 -27 64 -9 26 -27 62 -40 80 -13 17 -24 38 -24 45 0
7 -13 27 -28 45 -35 40 -105 199 -127 288 -30 117 -38 144 -57 182 -22 45 -24
130 -4 201 41 145 7 346 -58 347 -43 0 -109 -46 -163 -115 -149 -190 -266
-308 -320 -321 -26 -7 -111 -2 -253 15 -108 14 -116 12 -180 -24 -61 -35 -154
-1 -269 97 -36 32 -70 62 -76 68 -185 193 -411 410 -434 415 -58 12 -144 -18
-156 -56 -6 -19 -1 -69 11 -111 9 -30 -23 -10 -36 22 -14 34 -37 46 -44 22
-41 -140 -32 -273 27 -422 52 -130 67 -187 76 -285 6 -55 17 -127 26 -160 29
-110 48 -170 61 -195 8 -14 23 -45 34 -70 11 -25 30 -61 42 -81 62 -97 78
-131 111 -224 46 -131 64 -217 72 -343 7 -106 1 -137 -50 -257 -7 -16 -20 -62
-29 -101 -9 -39 -19 -79 -22 -89 -6 -15 -4 -16 17 -4 13 7 26 12 29 12 7 -1
11 1 115 36 50 17 101 31 113 31 12 0 22 5 22 12 0 6 3 9 6 6 3 -4 17 0 31 7
15 8 30 12 35 9 5 -3 14 -1 21 4 7 6 14 10 17 10 3 1 19 6 35 12 17 6 41 13
55 15 14 1 26 4 28 5 1 1 7 4 12 5 6 1 12 4 15 5 3 1 10 4 15 5 6 1 11 3 13 5
1 1 9 3 17 5 8 2 51 13 95 25 150 40 173 44 285 43 69 0 104 -4 128 -17 17 -9
32 -14 32 -11 0 23 118 -73 147 -120 54 -86 69 -145 71 -272 1 -111 -18 -177
-74 -258 -28 -42 -101 -115 -114 -115 -5 0 -10 -6 -10 -14 0 -9 8 -12 26 -8
15 3 56 -7 97 -23 55 -21 84 -40 123 -80 68 -70 92 -144 92 -275 0 -115 -12
-166 -65 -275 -43 -89 -50 -98 -134 -185 -69 -71 -185 -138 -245 -142 -16 -1
-33 -5 -39 -9 -5 -3 -50 -5 -100 -4 -67 1 -103 8 -140 24 -109 48 -165 76
-165 84 0 4 -4 7 -9 7 -13 0 -134 82 -144 98 -4 6 -14 12 -22 12 -7 0 -15 5
-17 12 -2 6 -17 -10 -34 -35 -16 -26 -32 -47 -36 -47 -5 0 -8 -7 -8 -15 0 -8
-5 -15 -10 -15 -6 0 -18 -16 -27 -35 -9 -19 -21 -35 -26 -35 -14 0 2 -68 33
-140 37 -87 136 -384 155 -465 3 -16 11 -90 16 -165 21 -301 22 -313 105 -690
45 -205 46 -296 3 -400 -32 -80 -90 -150 -141 -171 -15 -6 -28 -15 -28 -20 0
-5 -6 -9 -14 -9 -30 0 -105 -71 -130 -122 -42 -88 -39 -200 8 -230 18 -13 522
-9 549 3 31 14 58 62 102 181 29 77 35 107 35 171 0 77 -17 221 -45 387 -17
94 -20 458 -5 545 8 48 40 164 53 195 16 37 37 118 37 145 0 17 7 41 14 55 8
14 23 43 34 65 25 51 67 89 167 151 l80 49 138 3 c133 3 139 3 181 -22 45 -26
96 -79 96 -98 0 -6 6 -19 14 -27 17 -20 36 -118 36 -185 0 -28 5 -78 10 -111
15 -89 -5 -394 -35 -520 -33 -144 -45 -243 -45 -380 0 -80 -7 -153 -20 -218
-28 -139 -54 -181 -122 -201 -50 -15 -111 -83 -167 -186 -27 -51 -32 -71 -28
-102 11 -79 7 -78 300 -78 l260 0 43 32 c63 49 122 142 129 203 3 28 13 69 22
93 14 38 15 62 3 223 -14 199 -11 249 26 424 25 120 33 148 103 345 35 96 58
183 81 300 5 25 18 83 29 130 37 160 61 323 61 417 0 85 3 102 31 161 17 37
45 82 62 100 58 60 291 180 382 198 28 5 44 0 80 -22 69 -44 89 -93 93 -228 3
-67 -1 -126 -9 -155 -21 -76 -78 -200 -116 -249 -86 -112 -102 -201 -47 -249
26 -22 33 -23 209 -23 130 0 186 4 197 12 28 22 48 114 48 223 0 91 3 107 26
151 l26 49 -3 248 c-4 278 -5 275 66 261 46 -8 150 -111 244 -243 102 -142
105 -150 97 -308 -3 -73 -11 -165 -16 -205 -5 -40 -11 -122 -13 -183 -4 -122
-16 -156 -82 -230 -47 -53 -62 -81 -70 -135 -5 -38 -3 -50 15 -73 l21 -27 219
0 220 0 17 27 c30 45 51 149 41 197 -5 22 -9 59 -9 81 10 385 10 729 1 788
-14 91 -44 175 -90 252 -108 179 -141 294 -155 550 -6 107 -5 113 29 215 20
58 36 114 36 125 0 11 9 47 20 79 11 33 20 73 20 89 0 16 9 60 19 96 50 169
50 335 1 546 -7 28 -16 66 -20 85 -4 19 -17 60 -29 90 -11 30 -29 80 -41 110
-11 30 -20 69 -20 88 0 18 -9 65 -19 105 -28 104 -31 135 -33 307 -2 144 10
245 32 275 4 6 10 28 14 50 9 54 117 272 153 310 15 17 37 43 48 59 38 54 120
159 163 208 23 27 42 52 42 57 0 5 19 37 43 73 23 35 47 71 52 79 6 9 34 50
63 92 28 42 52 80 52 85 0 5 18 30 40 55 22 25 40 47 40 50 0 2 44 49 98 104
119 121 187 201 196 231 4 13 29 51 56 86 96 126 152 278 151 411 -1 106 -42
178 -192 335 -65 69 -119 128 -119 132 0 7 -135 98 -146 98 -3 0 -18 9 -33 19
-27 19 -193 91 -208 91 -4 -1 -20 -6 -34 -13z m-1103 -3259 c15 -24 1 -360
-21 -518 -3 -19 -8 -64 -11 -100 -3 -35 -8 -68 -10 -72 -2 -3 1 -10 7 -13 6
-4 13 2 16 14 3 12 9 21 14 21 5 0 9 7 9 15 0 8 9 23 20 32 11 10 20 21 20 26
0 13 75 87 88 87 5 0 15 6 21 14 14 17 60 27 89 20 29 -8 46 -56 38 -111 -3
-25 -11 -52 -17 -59 -6 -8 -9 -14 -5 -14 4 0 -1 -12 -11 -27 -21 -35 -139
-153 -152 -153 -13 0 -51 -54 -56 -80 -2 -11 0 -20 6 -20 5 0 11 0 14 0 27 0
77 -101 74 -150 -1 -14 -1 -51 -1 -84 2 -58 2 -58 24 -44 26 17 47 84 52 160
1 15 6 32 12 38 17 17 32 -8 36 -60 5 -74 66 -113 113 -72 61 54 67 142 17
245 -58 120 -61 131 -57 214 2 43 10 94 18 113 37 92 72 150 92 150 7 0 15 5
17 11 2 5 12 12 23 14 11 2 20 4 20 5 0 1 12 4 27 6 37 6 43 -9 28 -75 -24
-107 -35 -136 -56 -136 -16 0 -19 6 -16 46 3 46 3 46 -23 41 -21 -3 -32 -16
-47 -50 -26 -59 -19 -108 35 -214 39 -79 41 -87 40 -173 0 -101 -19 -160 -78
-249 -55 -84 -127 -102 -175 -44 -11 13 -19 18 -20 11 0 -20 -51 -90 -75 -103
-32 -17 -69 -6 -90 27 -15 23 -18 49 -18 164 1 122 -1 139 -18 155 -20 18 -65
22 -80 7 -6 -6 -12 -34 -15 -64 -3 -30 -7 -67 -8 -84 -2 -16 -7 -70 -11 -120
-4 -49 -8 -94 -9 -100 -2 -16 -63 -73 -87 -80 -21 -7 -22 -6 -15 61 3 38 8 83
10 99 2 17 7 57 11 90 6 58 10 91 20 174 2 21 7 68 10 104 3 36 8 75 10 86 2
11 7 54 10 95 4 42 8 88 11 103 2 16 6 57 9 93 4 36 8 79 10 95 2 17 7 85 11
152 l7 122 -23 -4 c-13 -3 -26 -9 -30 -14 -3 -6 -11 -7 -17 -3 -18 11 -21 62
-3 62 5 0 38 29 74 65 66 66 79 74 92 53z m-250 -620 c19 -57 4 -92 -40 -96
-15 -1 -35 -6 -45 -12 -10 -5 -21 -6 -25 -3 -3 3 -6 0 -6 -8 0 -8 11 -15 25
-15 97 -6 129 -199 64 -388 -28 -80 -105 -238 -147 -301 -39 -57 -96 -112
-132 -126 -95 -38 -163 71 -155 251 2 47 6 96 9 110 4 14 9 39 12 55 15 86
105 297 139 325 8 7 15 19 15 27 0 18 150 167 188 186 44 24 89 21 98 -5z
m-494 -129 c22 -43 14 -75 -22 -88 -16 -5 -30 -7 -33 -5 -2 2 -17 -2 -33 -11
-16 -8 -34 -15 -41 -15 -6 0 -15 -5 -19 -11 -4 -8 3 -9 26 -4 42 9 74 -8 103
-54 19 -32 22 -49 21 -141 -2 -129 -14 -186 -60 -287 -8 -17 -14 -36 -14 -42
0 -6 -5 -11 -11 -11 -5 0 -7 -4 -4 -10 3 -5 1 -10 -4 -10 -6 0 -10 -3 -9 -7 2
-8 -24 -60 -47 -93 -5 -9 -19 -31 -30 -50 -27 -45 -116 -138 -150 -156 -84
-43 -165 18 -182 138 -21 149 11 323 95 510 27 60 102 178 114 178 4 0 8 5 8
11 0 20 137 144 182 167 81 39 87 39 110 -9z m-469 -77 c12 -13 15 -30 11 -67
-5 -52 -23 -75 -56 -75 -21 0 -65 -25 -88 -50 -23 -25 -94 -150 -84 -150 2 0
0 -9 -6 -21 -10 -17 -44 -137 -56 -194 -22 -106 -38 -240 -48 -412 -3 -57 -20
-93 -42 -93 -4 0 -20 -12 -35 -26 -23 -22 -30 -24 -48 -14 -14 7 -20 18 -17
28 5 15 12 71 22 157 10 98 16 155 19 190 2 22 6 65 9 95 15 162 18 211 19
267 1 34 -2 66 -6 69 -4 4 -22 -1 -42 -11 -38 -21 -44 -19 -50 17 -4 19 6 35
43 71 26 26 58 60 72 78 45 56 59 74 70 86 11 13 43 6 35 -7 -3 -5 0 -12 5
-15 7 -4 11 -41 10 -93 -2 -114 -2 -114 10 -107 6 4 8 11 5 16 -4 5 -1 9 5 9
6 0 8 5 5 10 -3 6 -1 10 5 10 6 0 9 4 6 9 -3 5 3 19 13 32 10 13 26 42 37 63
23 50 117 146 142 146 10 0 26 -8 35 -18z"/>
<path d="M16222 5877 c-12 -7 -34 -31 -49 -52 -15 -22 -29 -42 -33 -45 -8 -6
-46 -88 -55 -119 -7 -24 -7 -24 50 8 32 18 69 47 84 64 24 29 64 106 61 117
-6 17 -22 40 -28 40 -4 -1 -17 -6 -30 -13z"/>
<path d="M15680 5700 c0 -5 -6 -10 -12 -10 -17 -1 -76 -80 -106 -142 -20 -43
-47 -143 -58 -218 -7 -50 -7 -216 0 -252 12 -58 58 -80 99 -48 21 16 85 130
91 163 2 7 6 19 9 27 4 8 9 26 11 40 3 14 5 25 7 25 1 0 3 9 4 20 2 11 6 37
10 57 9 53 9 178 0 211 -5 18 -13 27 -23 25 -19 -4 -64 -67 -57 -79 3 -4 0
-11 -6 -14 -5 -4 -8 -12 -6 -19 6 -15 -14 -50 -30 -53 -18 -4 -22 80 -6 117 3
8 7 17 8 20 14 41 41 85 60 102 26 23 32 38 15 38 -5 0 -10 -4 -10 -10z"/>
<path d="M15174 5578 c-40 -38 -91 -90 -99 -101 -22 -29 -70 -140 -81 -189 -1
-5 -3 -9 -4 -10 -1 -2 -4 -12 -6 -23 -15 -94 -18 -136 -18 -243 -1 -124 -1
-124 27 -148 16 -14 38 -23 51 -22 83 12 193 278 198 484 2 81 -9 124 -35 133
-27 10 -44 -6 -62 -59 -1 -3 -5 -12 -8 -20 -3 -8 -8 -29 -11 -47 -6 -45 -15
-57 -31 -43 -47 39 -6 177 78 262 9 10 17 23 17 28 0 12 -2 12 -16 -2z"/>
<path d="M8301 8439 c-6 -18 -11 -56 -11 -85 0 -49 -3 -55 -37 -83 -59 -49
-118 -38 -253 47 -40 25 -72 28 -89 8 -13 -16 -4 -43 26 -78 21 -24 34 -89 21
-105 -5 -7 -25 -15 -43 -19 -28 -5 -42 0 -87 33 -148 108 -228 155 -242 144
-14 -12 -11 -46 6 -68 5 -6 30 -21 56 -33 25 -12 64 -36 87 -54 22 -17 57 -39
77 -49 46 -20 59 -58 33 -87 -27 -29 -57 -25 -126 20 -34 22 -66 40 -71 40 -5
0 -25 11 -46 23 -69 44 -193 107 -208 107 -19 0 -72 -36 -96 -65 -10 -12 -17
-37 -18 -62 0 -34 5 -46 29 -66 16 -13 49 -27 73 -31 48 -7 98 -45 98 -75 0
-23 -26 -46 -75 -66 -44 -19 -149 -13 -219 11 -50 18 -96 18 -123 -1 -15 -11
-22 -28 -25 -67 -2 -31 -18 -83 -38 -126 -26 -56 -44 -80 -82 -110 -28 -20
-70 -64 -95 -96 -53 -70 -65 -123 -49 -234 9 -68 8 -74 -14 -104 -18 -25 -23
-45 -24 -95 l-1 -64 70 -67 c39 -37 84 -83 101 -102 64 -71 168 -109 250 -90
70 17 121 12 145 -12 57 -60 76 -138 45 -183 -7 -11 -16 -42 -19 -68 -10 -69
-21 -85 -78 -101 -44 -14 -55 -14 -85 -1 -19 8 -34 12 -34 10 0 -7 -113 50
-164 83 -28 18 -55 32 -61 32 -6 0 -36 15 -67 33 -54 33 -263 117 -291 117 -7
0 -17 4 -23 9 -5 5 -22 12 -39 14 -32 5 -140 45 -211 78 -44 19 -129 45 -199
59 -40 8 -86 13 -220 26 -38 3 -73 8 -76 10 -4 2 -24 6 -44 10 -21 3 -47 8
-59 11 -62 15 -249 22 -572 23 -292 0 -370 3 -410 15 -27 8 -80 20 -119 26
-38 6 -111 24 -162 40 -77 25 -98 37 -140 78 -62 62 -140 166 -178 239 -17 31
-45 80 -62 107 -36 56 -43 117 -22 200 14 56 5 107 -25 142 -41 47 -106 33
-211 -47 -27 -21 -72 -51 -100 -67 l-50 -28 -295 0 -295 0 -115 39 c-143 48
-210 81 -280 139 -90 74 -139 85 -183 40 -48 -51 -61 -170 -26 -248 14 -31 23
-78 27 -131 6 -97 -11 -143 -74 -207 -35 -35 -55 -64 -129 -176 -27 -41 -31
-57 -36 -151 -4 -58 -14 -136 -23 -175 -19 -78 -14 -143 12 -184 14 -20 18
-57 20 -193 3 -151 2 -174 -18 -230 -49 -143 -13 -379 77 -498 34 -45 45 -49
49 -20 10 66 16 91 31 132 9 27 21 48 26 48 4 0 6 4 3 9 -3 5 1 14 9 21 8 7
15 17 15 22 0 22 99 112 150 137 46 22 68 26 130 24 82 -1 116 -6 126 -16 4
-4 18 -7 30 -7 13 0 25 -4 28 -9 3 -5 18 -12 33 -16 15 -3 56 -26 91 -51 34
-24 67 -44 72 -44 6 0 10 -5 10 -10 0 -6 7 -13 15 -17 35 -13 169 -140 240
-226 22 -27 50 -60 63 -73 13 -14 30 -37 38 -52 14 -26 13 -28 -28 -64 -23
-21 -45 -38 -48 -38 -8 0 -52 44 -90 91 -115 142 -326 318 -451 376 -105 49
-208 62 -267 32 -39 -19 -121 -108 -129 -138 -3 -14 -8 -30 -12 -36 -3 -5 -6
-14 -7 -20 -12 -60 -17 -99 -17 -147 0 -52 4 -62 38 -103 21 -26 54 -70 73
-98 20 -29 51 -68 69 -87 19 -19 41 -46 49 -60 9 -14 37 -40 62 -59 55 -41 85
-67 115 -100 12 -13 43 -46 68 -72 25 -26 56 -68 70 -94 23 -45 25 -46 64 -41
105 14 238 91 301 173 15 21 33 43 39 50 30 36 35 43 35 53 0 5 5 10 10 10 6
0 10 6 10 13 0 7 9 23 20 35 12 12 18 22 14 22 -4 0 0 8 9 18 18 19 79 148
120 252 5 14 13 33 18 42 5 10 9 23 9 30 0 7 6 24 13 39 21 39 47 119 39 119
-4 0 -22 -16 -40 -36 -37 -40 -59 -47 -101 -33 -42 15 -62 50 -77 133 -6 32 2
76 14 76 4 0 23 -25 41 -55 18 -30 40 -56 47 -56 8 -1 20 -2 27 -3 39 -5 53
88 24 157 -9 20 -13 37 -9 37 4 0 2 4 -4 8 -12 7 -26 33 -70 122 -53 107 -69
222 -51 356 12 88 62 196 120 257 62 66 124 90 208 83 37 -4 81 -11 98 -16 17
-5 32 -9 34 -9 1 1 14 -2 29 -6 38 -10 41 -22 23 -107 -6 -32 -13 -76 -20
-123 -3 -22 -8 -51 -11 -65 -3 -14 -7 -36 -10 -50 -2 -14 -6 -34 -8 -45 -3
-11 -7 -38 -11 -60 -3 -22 -10 -53 -15 -70 -5 -16 -11 -41 -14 -55 -2 -14 -14
-63 -25 -110 -12 -47 -24 -96 -27 -109 -3 -13 -9 -32 -14 -41 -5 -9 -11 -29
-14 -44 -7 -38 -25 -93 -42 -124 -8 -15 -14 -32 -14 -38 0 -6 -9 -33 -21 -60
-11 -27 -24 -58 -28 -69 -12 -29 -160 -326 -174 -350 -7 -10 -18 -25 -24 -33
-7 -7 -13 -18 -13 -23 0 -10 -51 -89 -75 -116 -5 -7 -21 -26 -35 -43 -26 -33
-128 -135 -170 -170 -26 -23 -103 -61 -134 -67 -31 -6 -30 -9 3 -60 17 -26 47
-79 67 -118 20 -38 39 -72 43 -75 3 -3 15 -22 26 -42 11 -21 22 -38 26 -38 10
0 69 -128 118 -260 18 -47 38 -101 46 -120 7 -19 23 -89 35 -155 19 -109 21
-150 18 -415 l-3 -295 -32 -55 c-38 -66 -88 -106 -201 -161 -106 -53 -148 -94
-157 -157 -7 -50 5 -94 32 -124 15 -16 43 -18 325 -18 l308 0 45 61 c25 34 45
67 45 75 0 7 5 25 12 39 l11 25 137 0 c129 0 138 1 158 23 42 44 105 249 148
482 43 232 63 315 99 415 14 41 29 83 32 93 8 25 48 32 117 19 34 -6 148 -25
254 -41 165 -26 286 -56 367 -92 11 -5 60 -25 110 -44 49 -20 115 -52 145 -72
30 -20 72 -48 92 -61 44 -28 52 -49 49 -119 -2 -39 4 -63 23 -100 14 -26 26
-53 26 -60 0 -59 -261 -208 -415 -237 -105 -19 -152 -31 -218 -56 -50 -19 -57
-25 -77 -73 -13 -29 -25 -70 -27 -92 -5 -37 -1 -45 40 -90 l45 -50 292 -3 293
-3 101 35 c56 19 142 44 191 56 200 47 227 56 263 88 16 15 45 39 64 54 18 14
47 38 63 53 17 14 42 33 58 41 15 8 27 18 27 22 0 4 22 30 48 57 44 47 110 89
282 183 36 19 67 39 70 42 3 4 30 20 60 35 30 15 66 33 80 40 15 8 55 19 91
26 112 20 287 -27 372 -102 123 -108 147 -134 173 -186 14 -31 29 -74 31 -97
5 -39 2 -46 -47 -99 -39 -43 -60 -58 -88 -62 -52 -9 -73 -21 -104 -62 -23 -30
-28 -46 -28 -92 0 -98 45 -138 176 -156 45 -6 63 -10 84 -18 24 -9 121 -21
170 -20 35 0 68 12 145 53 55 29 108 60 117 69 9 9 35 52 58 96 62 121 91 169
134 217 49 55 64 86 77 153 8 44 7 60 -6 84 -11 21 -15 60 -15 133 0 89 4 110
26 158 14 30 30 60 36 68 23 28 90 280 105 397 8 66 19 199 23 295 4 96 14
195 20 220 8 28 15 152 19 320 l6 275 43 80 c23 44 56 100 72 125 15 25 29 54
29 66 2 50 36 118 87 173 30 32 67 85 84 117 17 33 46 84 65 114 27 42 34 65
33 95 -2 42 -4 49 -32 102 -37 71 -13 140 96 281 46 58 113 139 150 179 45 49
69 86 74 108 6 35 -11 105 -26 105 -5 0 -15 18 -21 41 -11 35 -10 44 6 72 10
18 27 43 39 55 20 23 94 62 116 62 17 0 102 60 125 88 37 45 75 127 75 162 0
19 9 49 20 65 11 17 20 46 20 66 0 46 37 158 61 185 25 27 24 69 -1 101 -11
14 -20 33 -20 43 0 9 -9 25 -20 35 -11 10 -20 28 -20 40 0 13 -7 28 -15 35 -8
7 -19 29 -25 49 -5 20 -31 61 -58 91 -27 30 -57 71 -66 90 -38 76 -120 187
-161 218 -25 17 -47 32 -50 32 -3 0 -16 9 -28 21 -27 25 -198 109 -224 109
-21 0 -82 36 -173 101 -36 26 -90 54 -120 64 -30 10 -62 23 -70 30 -8 7 -27
15 -41 18 -14 4 -43 20 -64 37 -21 16 -39 30 -40 30 -2 0 -8 -14 -14 -31z
m-3401 -1959 c6 -12 9 -28 6 -38 -3 -9 -8 -37 -11 -61 -4 -23 -11 -54 -16 -68
-5 -14 -7 -28 -4 -33 3 -5 1 -11 -5 -15 -5 -3 -10 -15 -10 -27 0 -11 -7 -41
-15 -67 -8 -25 -31 -98 -51 -161 -20 -63 -45 -135 -56 -159 -11 -24 -21 -52
-23 -63 -7 -34 -17 -61 -41 -116 -13 -29 -24 -60 -24 -70 0 -9 -6 -29 -14 -44
-14 -26 -38 -93 -42 -114 -1 -6 -5 -21 -9 -33 -4 -12 -2 -21 4 -21 6 0 11 4
11 9 0 5 6 16 13 23 7 7 18 20 23 29 18 31 99 122 172 193 94 90 94 91 112 99
8 4 26 14 40 22 35 21 73 18 104 -6 21 -16 26 -29 26 -62 -1 -40 -24 -120 -47
-162 -6 -11 -12 -23 -12 -27 -2 -13 -12 -41 -23 -68 -6 -14 -15 -35 -19 -47
-18 -46 -32 -78 -41 -97 -5 -10 -11 -28 -14 -40 -2 -11 -9 -32 -15 -46 -27
-57 -39 -90 -67 -185 -33 -110 -30 -119 29 -95 16 7 35 10 44 6 28 -10 14 -65
-20 -75 -5 -2 -17 -6 -25 -8 -8 -3 -26 -10 -40 -16 -14 -5 -36 -12 -50 -14
-13 -3 -29 -8 -35 -13 -5 -4 -24 -10 -42 -13 -53 -8 -55 32 -8 193 9 30 20 73
26 95 5 21 14 44 19 50 4 5 13 30 20 55 12 44 32 97 52 134 5 10 12 30 14 44
3 15 9 31 13 37 5 5 13 24 19 40 6 17 22 60 35 97 20 57 22 70 11 79 -11 9
-18 8 -31 -2 -9 -8 -25 -20 -34 -28 -31 -24 -74 -68 -99 -101 -14 -18 -33 -40
-42 -49 -10 -8 -18 -20 -18 -26 0 -5 -14 -26 -30 -45 -16 -19 -30 -41 -30 -47
0 -7 -4 -13 -9 -13 -5 0 -11 -8 -15 -17 -3 -10 -14 -31 -25 -48 -44 -67 -108
-190 -140 -266 -12 -31 -28 -56 -34 -57 -7 -2 -24 -3 -39 -5 -14 -1 -29 -5
-33 -8 -3 -4 -15 -5 -26 -2 -16 5 -18 11 -13 41 4 20 18 60 30 89 13 29 22 53
19 53 -2 0 14 51 36 113 22 61 46 136 55 166 8 30 19 60 24 66 5 6 12 26 15
45 3 19 13 48 21 64 8 17 17 43 20 59 2 17 13 48 23 71 10 23 34 88 53 146 19
58 45 134 57 170 20 57 56 178 66 220 2 8 4 15 6 15 1 0 3 9 5 20 1 11 5 30 8
42 2 11 -2 29 -9 40 -12 15 -17 16 -35 5 -17 -10 -23 -10 -35 2 -23 23 -18 50
13 62 35 15 55 21 66 22 5 0 12 4 15 9 6 8 121 71 133 72 4 1 12 -8 18 -19z
m-515 -584 c39 -17 54 -62 36 -110 -10 -26 -14 -28 -49 -22 -78 14 -187 9
-215 -8 -14 -10 -29 -17 -33 -16 -17 6 -103 -96 -138 -164 -21 -41 -38 -77
-38 -80 1 -3 -6 -25 -14 -48 -47 -128 -64 -271 -38 -324 20 -42 55 -57 92 -42
34 15 118 102 141 148 10 19 30 56 44 83 15 26 25 47 22 47 -2 0 3 19 11 43
19 53 24 71 31 129 6 54 -12 118 -33 118 -17 0 -64 -44 -64 -60 0 -5 -5 -10
-11 -10 -5 0 -7 -4 -4 -10 3 -5 1 -10 -5 -10 -6 0 -9 -4 -6 -9 3 -5 -1 -14 -9
-21 -8 -7 -12 -16 -9 -21 3 -5 -2 -9 -10 -9 -9 0 -17 6 -17 13 -1 6 -3 23 -4
36 -3 28 25 96 56 135 26 33 104 72 142 70 34 -1 60 -25 85 -78 29 -59 20
-232 -13 -283 -9 -13 -13 -23 -11 -23 5 0 -8 -24 -59 -110 -11 -19 -63 -78
-115 -131 -177 -179 -283 -199 -368 -70 -11 16 -17 51 -18 110 -4 122 26 245
85 351 17 30 34 62 38 70 3 8 9 17 13 20 3 3 17 21 30 40 62 89 203 199 281
220 24 7 50 17 57 22 6 6 12 8 12 5 0 -3 12 -2 28 3 38 12 39 12 77 -4z m1052
-225 c-7 -61 -21 -121 -35 -147 -6 -12 -14 -36 -17 -55 -3 -19 -13 -47 -21
-64 -9 -16 -18 -43 -21 -59 -4 -25 9 -16 100 75 106 106 128 125 206 180 58
41 98 56 144 54 55 -3 72 -25 71 -90 0 -30 -5 -64 -12 -77 -10 -19 -30 -69
-37 -88 -1 -3 -7 -18 -13 -33 -7 -16 -12 -33 -12 -38 0 -5 -5 -9 -12 -9 -6 0
-8 -3 -5 -6 3 -4 -4 -25 -17 -48 -13 -22 -32 -62 -41 -88 -10 -27 -22 -48 -28
-48 -6 0 -8 -3 -4 -6 3 -3 -15 -45 -39 -92 -25 -48 -45 -87 -44 -87 2 0 -19
-56 -29 -80 -33 -73 -30 -126 7 -105 29 17 105 39 114 34 5 -3 17 -22 28 -42
36 -70 83 -110 125 -107 11 1 29 2 40 3 11 1 36 17 56 35 41 35 70 112 62 162
-7 53 -10 70 -12 70 -2 0 -4 7 -6 15 -6 22 -25 92 -31 115 -39 140 -23 246 55
353 28 39 101 112 111 112 4 0 15 9 25 20 10 11 28 20 41 20 13 0 26 4 29 10
7 12 151 6 188 -9 19 -8 27 -17 27 -36 0 -14 -5 -25 -11 -25 -5 0 -8 -4 -5 -9
3 -5 -1 -14 -9 -21 -8 -7 -15 -17 -15 -22 0 -6 -10 -24 -22 -41 -13 -18 -23
-34 -23 -37 -1 -16 -69 -100 -78 -97 -20 6 -32 54 -19 79 23 47 24 66 3 87
-28 28 -83 21 -130 -17 -20 -16 -36 -33 -36 -38 0 -5 -4 -15 -8 -21 -21 -33
-8 -149 29 -261 8 -23 17 -66 20 -95 3 -29 7 -57 9 -64 9 -28 -19 -142 -47
-192 -37 -66 -126 -153 -190 -185 -58 -29 -157 -30 -199 -3 -35 23 -61 77 -60
125 1 28 -8 28 -67 -3 -72 -37 -168 -53 -196 -32 -17 13 -18 18 -6 68 6 30 21
79 32 109 11 30 22 66 25 80 2 13 9 30 14 36 5 7 12 21 14 33 4 20 10 36 59
143 14 31 26 62 26 67 0 6 5 11 10 11 6 0 9 3 8 8 -1 4 22 57 51 117 82 170
87 187 60 192 -13 3 -26 -4 -76 -47 -7 -5 -15 -10 -19 -10 -6 0 -148 -144
-169 -172 -5 -7 -25 -33 -43 -58 -17 -25 -48 -66 -67 -92 -19 -27 -32 -48 -28
-48 3 0 0 -8 -8 -17 -8 -10 -33 -54 -54 -98 -22 -44 -44 -83 -48 -86 -5 -3 -9
-10 -9 -15 0 -5 -4 -19 -9 -32 -5 -13 -9 -26 -9 -30 -1 -20 -44 -54 -72 -59
-18 -3 -41 -9 -52 -15 -29 -16 -52 12 -35 43 7 13 14 26 14 29 1 3 8 19 15 35
7 17 14 32 15 35 5 15 28 75 42 110 6 14 18 45 28 70 9 25 21 53 27 64 5 10
11 28 14 39 2 11 13 40 24 64 11 23 20 51 20 60 0 10 6 29 13 44 17 32 47 119
42 119 -3 0 3 21 13 48 10 26 18 58 18 72 -1 22 -6 25 -36 25 -45 0 -60 10
-60 40 0 20 8 27 53 40 28 9 61 18 72 20 11 3 45 13 75 23 73 25 83 21 77 -37z
m1642 -270 c21 -28 21 -92 0 -118 -13 -15 -39 -14 -114 3 -37 9 -159 8 -203
-1 -107 -21 -225 -135 -304 -294 -29 -57 -53 -109 -54 -115 -1 -6 -12 -42 -24
-81 -25 -78 -33 -173 -18 -217 21 -60 115 -92 155 -53 8 8 19 15 24 15 14 0
139 126 139 139 0 6 4 11 9 11 8 0 53 64 56 80 0 3 11 21 23 40 18 29 50 119
69 195 8 33 4 104 -7 125 -13 25 -57 26 -87 2 -24 -19 -73 -87 -73 -102 0 -6
-5 -10 -12 -10 -6 0 -8 -3 -5 -7 9 -9 -12 -33 -30 -33 -8 0 -12 4 -8 9 3 5 1
12 -5 16 -5 3 -7 18 -4 33 24 109 144 222 242 227 60 3 96 -17 127 -73 53 -94
35 -243 -46 -382 -8 -13 -18 -30 -24 -36 -33 -39 -45 -55 -45 -61 0 -3 -30
-34 -67 -69 -106 -99 -112 -104 -122 -104 -6 0 -14 -6 -18 -12 -9 -14 -69 -58
-79 -58 -3 0 -18 -8 -32 -18 -62 -43 -180 -59 -239 -32 -33 14 -46 30 -71 80
-29 57 -31 68 -28 148 2 48 9 107 16 132 21 76 96 224 151 296 67 88 176 194
199 194 5 0 13 6 17 14 12 20 104 73 168 96 65 23 93 32 115 36 13 3 26 7 28
8 1 2 39 3 83 2 72 -1 82 -3 98 -25z m412 -52 c8 -16 -24 -163 -40 -183 -5 -6
-12 -26 -16 -43 -3 -18 -11 -33 -16 -33 -6 0 -8 -4 -4 -9 3 -5 1 -12 -5 -16
-5 -3 -10 -15 -10 -26 0 -10 -5 -19 -11 -19 -5 0 -8 -4 -4 -9 3 -5 1 -12 -4
-15 -5 -4 -15 -23 -22 -44 -6 -20 -17 -40 -23 -44 -6 -4 -7 -10 -3 -14 4 -4
30 17 59 47 29 30 73 70 96 89 24 19 56 46 72 60 15 14 38 32 50 40 12 8 34
25 48 37 15 13 32 23 39 23 6 0 13 4 15 9 3 7 95 52 101 49 1 -1 13 4 26 12
32 17 94 22 125 10 50 -19 66 -93 32 -155 -5 -11 -11 -22 -11 -25 -2 -9 -107
-214 -135 -265 -16 -27 -36 -63 -44 -80 -9 -16 -27 -48 -41 -70 -14 -22 -28
-48 -32 -57 -3 -10 -10 -18 -16 -18 -6 0 -7 -3 -4 -6 4 -4 -2 -19 -12 -33 -10
-14 -22 -36 -25 -48 -4 -13 -12 -23 -17 -23 -5 0 -8 -3 -7 -7 2 -11 -35 -86
-47 -95 -5 -4 -6 -8 -2 -8 5 0 2 -9 -6 -21 -23 -33 -10 -59 29 -59 18 0 36 4
39 10 3 5 17 9 30 8 24 -2 42 -38 29 -59 -7 -13 -102 -58 -131 -64 -13 -2 -27
-6 -32 -9 -10 -6 -88 -17 -144 -19 -58 -3 -66 31 -29 118 14 32 34 88 39 113
3 12 9 22 14 22 5 0 8 3 7 8 -1 4 4 20 10 35 7 16 12 33 12 38 0 5 4 9 10 9 5
0 9 3 8 8 -4 12 65 152 74 152 5 0 7 4 4 9 -3 4 6 23 19 41 14 19 25 40 25 47
0 7 5 13 12 13 6 0 9 3 5 6 -3 4 5 21 18 39 14 17 23 34 20 37 -3 3 1 11 10
18 8 7 15 19 15 26 0 8 5 14 11 14 5 0 8 4 5 9 -3 5 1 14 9 21 8 7 15 18 15
25 0 7 9 24 21 39 28 35 42 86 28 102 -9 11 -22 7 -68 -18 -31 -17 -63 -38
-72 -47 -9 -9 -29 -25 -45 -36 -49 -35 -172 -153 -224 -216 -19 -23 -42 -50
-50 -59 -8 -10 -22 -28 -30 -40 -8 -12 -21 -28 -27 -36 -7 -7 -13 -15 -13 -19
0 -3 -10 -16 -21 -28 -12 -12 -28 -35 -36 -52 -7 -16 -25 -48 -38 -70 -13 -22
-37 -68 -54 -103 -37 -76 -48 -88 -92 -95 -19 -3 -51 -9 -71 -13 -29 -5 -39
-3 -44 9 -3 9 23 75 60 150 36 74 66 140 66 146 0 6 5 11 11 11 5 0 8 4 5 8
-3 5 4 21 15 38 10 16 19 37 19 47 0 9 5 17 11 17 5 0 8 4 4 9 -3 5 -1 12 4
15 5 4 15 23 22 44 7 20 26 66 43 102 16 36 31 67 31 70 4 13 17 47 26 62 5
10 9 23 9 28 0 6 9 31 20 55 41 90 27 141 -34 124 -35 -10 -56 3 -56 36 0 24
16 42 40 43 16 0 49 7 78 16 17 5 28 8 107 24 22 5 49 13 59 19 25 14 46 10
57 -8z"/>
<path d="M3589 6493 c-53 -57 -63 -83 -65 -173 -1 -46 0 -89 4 -95 4 -5 8 -19
9 -29 2 -11 8 -25 14 -33 6 -7 9 -13 5 -13 -3 0 5 -18 18 -39 14 -21 22 -42
19 -45 -4 -3 -2 -6 4 -6 6 0 13 -8 17 -17 3 -10 16 -37 29 -59 27 -47 36 -72
43 -129 3 -22 7 -41 9 -43 3 -4 26 66 31 93 1 6 3 12 4 15 1 3 4 14 5 25 4 28
16 93 21 119 3 11 7 36 10 55 5 38 10 68 20 121 3 19 8 46 10 60 6 38 13 87
19 118 14 82 14 82 -8 83 -12 0 -31 3 -42 5 -11 3 -49 7 -85 10 -61 4 -67 2
-91 -23z"/>
<path d="M10825 6468 c-33 -47 -46 -123 -42 -231 6 -124 -3 -156 -69 -240 -55
-70 -66 -81 -110 -102 -17 -9 -36 -26 -42 -38 -38 -80 -52 -122 -61 -175 -5
-33 -26 -93 -45 -135 -20 -41 -36 -90 -36 -109 0 -18 -13 -55 -30 -83 -16 -27
-30 -60 -30 -72 0 -12 -4 -24 -9 -27 -5 -3 -14 -36 -21 -73 -6 -38 -18 -87
-26 -111 -7 -23 -23 -93 -34 -155 -23 -126 -70 -285 -108 -366 -15 -32 -51
-80 -87 -116 -34 -33 -77 -80 -96 -105 -42 -55 -338 -350 -351 -350 -5 0 -23
-13 -41 -30 -47 -44 -240 -184 -293 -214 -99 -55 -215 -163 -252 -234 -30 -56
-97 -180 -141 -257 -13 -22 -30 -49 -40 -60 -31 -37 -57 -80 -71 -115 -7 -19
-19 -42 -25 -50 -6 -8 -22 -39 -34 -69 -13 -29 -31 -63 -42 -74 -10 -12 -19
-27 -19 -34 0 -7 -4 -13 -9 -13 -20 0 -134 -211 -165 -304 -36 -108 -41 -115
-125 -202 -53 -54 -89 -81 -125 -96 -90 -36 -239 -76 -319 -87 -91 -13 -230
-14 -241 -3 -4 4 -67 12 -139 18 -73 6 -161 17 -197 23 -36 7 -87 10 -114 6
-45 -6 -176 -44 -221 -65 -27 -13 -134 -43 -225 -65 -80 -18 -173 -48 -281
-89 -36 -13 -95 -32 -130 -41 -85 -21 -148 -48 -234 -100 -38 -23 -81 -46 -95
-50 -30 -9 -159 -78 -215 -115 -35 -23 -209 -110 -220 -110 -3 0 -25 -16 -51
-35 -25 -19 -50 -35 -55 -35 -6 0 -48 -35 -95 -77 -63 -58 -84 -83 -84 -103 0
-31 7 -40 44 -64 27 -17 44 -18 200 -12 94 4 200 11 236 16 36 5 119 16 185
25 229 30 485 88 600 135 11 4 61 23 110 41 50 18 94 36 99 41 6 4 25 8 42 8
18 0 44 4 58 10 142 54 1159 88 1221 40 6 -4 28 -11 49 -15 86 -15 179 -84
220 -163 10 -19 30 -35 62 -47 41 -15 56 -16 107 -7 33 6 81 23 108 37 27 14
60 25 75 25 22 0 77 -30 94 -50 3 -4 13 -9 23 -13 9 -3 17 -14 17 -24 0 -10
19 -47 43 -82 76 -116 181 -169 409 -207 91 -15 113 -16 143 -5 20 7 52 10 73
7 20 -3 57 -8 82 -11 193 -21 256 -59 319 -189 28 -58 30 -69 35 -216 5 -158
15 -211 55 -302 35 -76 40 -78 246 -78 177 0 181 0 218 26 46 31 59 62 51 117
-8 50 -51 135 -76 148 -17 9 -18 30 -18 297 l0 287 31 33 c55 59 83 65 294 66
l190 1 53 45 c28 25 52 50 52 57 0 21 90 56 138 54 65 -2 97 -29 112 -93 7
-29 23 -64 35 -78 13 -14 29 -51 36 -83 10 -47 20 -64 48 -88 63 -52 113 -62
354 -67 l219 -4 34 33 c37 36 42 62 20 112 -21 48 -75 93 -136 112 -115 35
-200 87 -226 136 -8 17 -24 39 -35 50 -39 39 -47 78 -54 280 -7 179 -6 200 11
230 10 19 21 69 25 114 4 44 15 114 24 155 11 50 15 100 12 153 -6 84 -1 103
50 215 18 40 33 76 33 80 0 5 8 17 18 28 9 10 31 39 47 64 26 39 48 66 105
129 8 9 26 32 39 51 22 32 74 92 150 176 16 17 45 66 65 110 21 43 46 88 56
99 22 24 77 157 131 318 39 116 39 118 46 317 4 132 2 213 -5 238 -13 46 -47
206 -62 288 -5 33 -10 91 -10 130 0 105 -25 235 -52 275 -13 19 -31 55 -42 79
-38 92 -56 127 -76 145 -11 10 -20 23 -20 30 0 6 -16 35 -35 65 -40 63 -42 90
-20 206 16 86 56 156 128 227 48 46 87 121 87 166 0 91 -69 195 -138 207 -20
4 -46 11 -56 17 -11 5 -47 16 -80 23 -34 8 -90 23 -126 33 -36 11 -90 24 -120
31 -118 24 -317 85 -360 110 -25 15 -74 43 -110 62 -142 79 -227 129 -270 158
-185 126 -216 139 -245 98z m402 -2613 c29 -20 39 -78 23 -124 -25 -71 -146
-242 -309 -436 -41 -49 -78 -92 -81 -95 -3 -3 -50 -57 -105 -120 -55 -63 -147
-166 -204 -228 -57 -62 -101 -116 -98 -119 4 -3 97 2 209 12 300 25 693 31
786 11 105 -22 164 -72 132 -111 -16 -19 -60 -23 -290 -30 -225 -6 -301 -10
-535 -31 -163 -14 -498 -52 -500 -57 -6 -8 -264 -341 -324 -417 -179 -225
-302 -360 -327 -360 -24 0 -64 31 -80 61 -28 55 -15 97 72 231 52 79 285 391
323 431 l26 28 -105 -8 c-58 -4 -206 -8 -330 -8 -207 0 -231 2 -299 23 -162
51 -231 132 -231 271 0 104 52 236 128 331 20 25 41 51 47 58 20 24 171 149
237 195 119 84 278 155 404 182 86 18 253 19 319 1 182 -48 266 -170 268 -388
1 -60 2 -108 4 -108 1 0 70 82 154 183 470 561 495 589 554 620 39 21 104 21
132 2z"/>
<path d="M9967 3340 c-128 -23 -338 -115 -523 -230 -217 -136 -312 -238 -316
-341 -1 -36 3 -46 30 -70 89 -80 359 -86 807 -19 152 23 145 18 220 168 116
231 114 409 -6 469 -51 26 -142 36 -212 23z"/>
<path d="M13779 5936 c-3 -3 -25 -7 -50 -10 -24 -2 -44 -5 -44 -6 0 -3 -41
-11 -63 -12 -12 0 -25 -5 -28 -9 -3 -5 -10 -7 -15 -3 -5 3 -16 1 -23 -5 -7 -6
-23 -13 -37 -15 -13 -3 -24 -5 -24 -6 0 -3 -29 -10 -65 -17 -19 -3 -45 -13
-57 -21 -13 -8 -23 -11 -23 -7 0 4 -6 2 -13 -4 -8 -6 -17 -8 -20 -4 -4 3 -12
1 -19 -4 -7 -6 -60 -25 -118 -43 -58 -18 -120 -39 -138 -46 -18 -8 -42 -14
-52 -14 -11 0 -20 -4 -20 -10 0 -5 -17 -12 -37 -15 -65 -11 -122 -38 -126 -60
-2 -11 -3 -101 -2 -200 1 -151 5 -193 23 -260 12 -44 27 -82 33 -84 5 -1 21
-14 34 -27 13 -13 27 -24 30 -24 7 0 28 -17 66 -52 15 -16 32 -28 36 -28 5 0
15 -9 23 -20 8 -11 20 -20 27 -20 7 0 13 -4 13 -10 0 -5 12 -16 28 -24 15 -8
44 -31 65 -50 20 -20 42 -36 47 -36 6 0 10 -4 10 -10 0 -23 30 -7 49 26 28 47
26 62 -6 77 -65 29 -111 79 -156 168 -38 77 -50 151 -33 209 10 35 76 81 99
69 17 -10 23 -40 10 -53 -5 -4 -8 -11 -9 -14 -1 -4 -5 -27 -10 -52 -4 -25 -7
-49 -5 -55 2 -5 5 -21 7 -35 5 -26 58 -82 84 -89 43 -12 152 1 148 17 -4 13
13 52 23 52 5 0 8 3 7 8 -2 9 18 55 82 197 10 22 26 58 35 80 9 22 20 48 25
57 6 10 10 25 10 33 0 8 4 15 8 15 4 0 8 10 9 22 1 11 6 24 10 27 4 3 9 13 11
21 2 8 12 34 22 57 11 24 20 51 20 60 0 10 4 24 9 32 11 18 70 24 72 8 1 -7 2
-32 4 -57 1 -25 7 -58 13 -73 7 -16 12 -31 12 -33 0 -9 92 -103 99 -102 3 1
23 -4 45 -11 36 -13 40 -12 79 16 64 44 85 132 65 269 -4 24 -40 98 -50 102
-5 2 -8 8 -8 14 0 11 -25 38 -36 38 -4 0 -15 6 -23 13 -31 25 -168 57 -182 43z"/>
<path d="M13662 5418 c-7 -7 -12 -16 -12 -21 0 -6 -10 -31 -21 -56 -12 -25
-25 -55 -30 -66 -28 -69 -52 -123 -64 -146 -8 -14 -12 -29 -9 -32 6 -5 147 65
174 87 8 7 26 17 40 24 14 7 32 16 40 21 8 5 30 15 48 21 17 7 32 16 32 21 0
5 -19 21 -42 36 -24 14 -63 48 -86 75 -47 52 -52 54 -70 36z"/>
<path d="M13968 5119 c-13 -3 -53 -22 -90 -42 -36 -20 -69 -33 -72 -30 -3 4
-6 2 -6 -3 0 -5 -17 -18 -37 -29 -21 -10 -49 -27 -63 -36 -52 -34 -160 -90
-160 -82 0 4 -4 3 -8 -2 -6 -10 -73 -34 -112 -41 -8 -2 -16 -8 -18 -14 -2 -6
-9 -16 -15 -23 -7 -7 -13 -19 -15 -27 -2 -8 -10 -22 -18 -31 -21 -23 -26 -59
-8 -59 8 0 14 -4 14 -8 0 -5 18 -18 40 -31 22 -12 53 -33 69 -46 15 -14 31
-22 35 -18 3 3 6 2 6 -4 0 -6 8 -13 18 -17 9 -3 35 -17 57 -31 36 -23 61 -36
130 -67 12 -5 27 -10 35 -11 8 -2 20 -5 25 -9 11 -6 160 -3 185 4 31 8 80 33
80 40 0 5 5 8 11 8 13 0 129 118 127 128 -1 4 8 28 20 53 12 25 25 56 28 70
11 40 12 189 3 195 -5 3 -7 9 -4 14 3 5 1 11 -5 15 -5 3 -10 14 -10 24 0 18
-64 91 -80 91 -5 0 -10 4 -10 8 0 10 -8 12 -76 15 -29 2 -63 0 -76 -4z"/>
<path d="M12950 4745 c0 -3 4 -13 10 -23 5 -9 28 -77 51 -151 l41 -134 24 26
c13 14 24 30 24 36 0 5 3 11 8 13 9 4 42 63 42 76 0 11 -35 52 -44 52 -7 0
-24 13 -61 48 -13 12 -28 22 -32 22 -5 0 -15 9 -23 20 -13 18 -40 28 -40 15z"/>
</g>
</svg>
